<svg xmlns="http://www.w3.org/2000/svg" version="1.0" preserveAspectRatio="xMidYMid meet" viewBox="6.79 3 279.06 284">


<g transform="translate(0.000000,594.000000) scale(0.100000,-0.100000)" fill="#EEC980" stroke="none">
<path d="M1323 5903 c9 -2 25 -2 35 0 9 3 1 5 -18 5 -19 0 -27 -2 -17 -5z"/>
<path d="M1505 5900 c-4 -6 13 -10 44 -10 28 0 51 5 51 10 0 6 -20 10 -44 10 -25 0 -48 -4 -51 -10z"/>
<path d="M1628 5883 c7 -3 16 -2 19 1 4 3 -2 6 -13 5 -11 0 -14 -3 -6 -6z"/>
<path d="M1698 5873 c7 -3 16 -2 19 1 4 3 -2 6 -13 5 -11 0 -14 -3 -6 -6z"/>
<path d="M1748 5863 c7 -3 16 -2 19 1 4 3 -2 6 -13 5 -11 0 -14 -3 -6 -6z"/>
<path d="M1835 5840 c27 -12 43 -12 25 0 -8 5 -22 9 -30 9 -10 0 -8 -3 5 -9z"/>
<path d="M1635 5723 c250 -38 570 -192 765 -368 l65 -59 -65 68 c-124 129 -372 273 -570 331 -71 22 -208 45 -254 44 -26 -1 -6 -6 59 -16z"/>
<path d="M1523 5603 c9 -2 23 -2 30 0 6 3 -1 5 -18 5 -16 0 -22 -2 -12 -5z"/>
<path d="M1595 5594 c11 -2 45 -9 75 -15 97 -20 213 -60 302 -105 102 -51 121 -56 58 -14 -95 63 -272 125 -387 134 -37 3 -59 3 -48 0z"/>
<path d="M1366 5511 c-48 -11 -89 -21 -91 -23 -2 -2 69 -3 158 -4 204 -1 347 -28 509 -98 56 -24 68 -19 23 9 -171 106 -421 154 -599 116z"/>
<path d="M2095 5371 c-95 -28 -128 -45 -185 -96 -29 -26 -71 -55 -94 -65 -83 -35 -164 -153 -186 -270 -8 -42 -7 -67 5 -113 8 -32 15 -68 15 -80 0 -11 8 -29 17 -39 14 -16 15 -22 4 -40 -12 -20 -12 -20 36 -13 26 4 50 8 51 10 2 2 -2 20 -9 39 -26 72 21 120 264 270 183 112 248 148 263 142 22 -8 17 -102 -10 -176 -12 -36 -26 -74 -30 -85 -5 -13 4 -7 25 15 l32 35 -24 -45 c-35 -65 -164 -192 -228 -223 -66 -32 -108 -34 -218 -7 -64 15 -89 17 -110 9 -35 -13 -143 -82 -143 -91 0 -4 23 9 51 28 77 52 81 48 49 -43 -22 -64 -25 -93 -10 -93 6 0 29 9 51 21 71 36 125 36 229 -1 80 -29 101 -32 165 -28 79 5 147 33 235 95 46 32 109 109 111 135 1 7 5 2 9 -12 4 -14 8 -72 9 -129 1 -145 12 -120 13 30 1 120 2 122 10 54 12 -96 -6 -281 -37 -390 -14 -49 -51 -140 -83 -204 -31 -64 -59 -120 -61 -126 -11 -25 60 67 92 120 77 126 117 274 120 433 1 56 6 102 11 102 15 0 -2 219 -22 290 -23 77 -64 168 -70 152 -2 -6 1 -20 7 -31 26 -47 7 -31 -29 27 -39 60 -51 114 -30 127 23 14 121 -188 161 -332 14 -52 24 -128 29 -228 l8 -150 -3 165 c-2 128 -7 181 -22 235 -28 99 -68 189 -120 270 -44 67 -46 73 -47 147 -1 83 -14 111 -70 152 -38 29 -150 32 -231 7z m-397 -393 c3 -34 -16 -68 -39 -68 -12 0 -11 40 2 79 14 41 33 35 37 -11z m799 -200 c-3 -8 -6 -5 -6 6 -1 11 2 17 5 13 3 -3 4 -12 1 -19z m10 -65 c-3 -10 -5 -2 -5 17 0 19 2 27 5 18 2 -10 2 -26 0 -35z m10 -70 c-3 -10 -5 -2 -5 17 0 19 2 27 5 18 2 -10 2 -26 0 -35z"/>
<path d="M322 5323 c-43 -56 -81 -118 -128 -213 -86 -175 -125 -353 -126 -575 -1 -184 12 -266 77 -491 3 -10 -3 -1 -14 21 -29 60 -25 26 9 -66 50 -138 180 -366 201 -353 5 3 3 15 -3 27 -7 12 -13 27 -13 32 -2 21 -36 75 -45 70 -5 -3 -12 0 -16 6 -4 8 -3 9 4 5 18 -11 15 -2 -34 95 -58 116 -109 268 -130 389 -12 74 -15 135 -11 275 4 162 8 191 36 293 47 169 123 344 183 421 10 13 18 32 18 43 0 12 4 16 12 12 7 -4 8 -3 4 5 -4 6 -2 18 4 26 7 8 10 15 7 15 -3 0 -19 -17 -35 -37z m-152 -1338 c0 -5 -5 -3 -10 5 -5 8 -10 20 -10 25 0 6 5 3 10 -5 5 -8 10 -19 10 -25z m39 -82 c17 -35 29 -63 26 -63 -5 0 -65 116 -65 126 0 12 6 2 39 -63z"/>
<path d="M726 5214 c-164 -135 -269 -399 -269 -679 0 -120 10 -196 40 -290 21 -66 72 -179 78 -173 3 2 -4 22 -14 44 -58 120 -85 250 -84 404 0 142 19 233 78 371 56 130 112 215 218 333 23 27 34 46 24 46 -2 0 -34 -25 -71 -56z"/>
<path d="M432 5225 c-79 -89 -164 -269 -207 -436 -49 -193 -42 -475 15 -593 11 -23 18 -32 14 -21 -29 102 -37 147 -41 260 -3 76 -1 168 6 218 24 178 99 380 196 525 30 45 53 82 51 82 -2 0 -18 -16 -34 -35z"/>
<path d="M523 5206 c-47 -58 -108 -167 -146 -262 -99 -247 -113 -501 -41 -753 26 -90 114 -280 140 -302 8 -7 -12 41 -45 107 -100 199 -139 366 -126 544 16 237 87 452 208 633 50 74 53 85 10 33z"/>
<path d="M2444 5197 c16 -20 30 -37 33 -37 7 0 -36 58 -49 66 -7 4 1 -9 16 -29z"/>
<path d="M549 5128 c-47 -65 -86 -148 -126 -266 -78 -234 -83 -402 -18 -627 29 -102 101 -255 140 -300 l27 -30 -21 38 c-12 20 -30 52 -40 70 -33 55 -88 198 -112 287 -32 124 -31 280 4 420 35 145 78 260 136 363 27 48 47 87 45 87 -2 0 -18 -19 -35 -42z"/>
<path d="M2594 5090 c55 -106 100 -233 122 -347 21 -109 23 -318 5 -431 -7 -45 -11 -85 -8 -89 13 -12 27 51 37 170 15 178 -3 323 -62 507 -22 69 -96 222 -123 255 -8 11 4 -18 29 -65z"/>
<path d="M2505 5110 c46 -77 95 -189 115 -263 23 -84 44 -315 37 -406 -4 -48 -2 -60 5 -46 7 12 9 75 5 179 -4 126 -11 182 -31 258 -24 95 -94 246 -137 298 -14 17 -12 11 6 -20z"/>
<path d="M2610 5110 c6 -11 13 -20 16 -20 2 0 0 9 -6 20 -6 11 -13 20 -16 20 -2 0 0 -9 6 -20z"/>
<path d="M2570 5041 c0 -6 4 -13 10 -16 6 -3 7 1 4 9 -7 18 -14 21 -14 7z"/>
<path d="M2670 4990 c12 -30 30 -77 40 -105 10 -27 19 -44 19 -37 1 17 -59 174 -71 187 -5 6 0 -15 12 -45z"/>
<path d="M2522 4939 c63 -146 81 -239 81 -414 1 -122 -3 -167 -21 -240 -28 -110 -102 -266 -174 -362 -91 -122 -235 -264 -343 -339 -58 -40 -250 -126 -325 -146 -111 -29 -318 -36 -450 -13 -159 26 -376 110 -424 164 -28 31 -13 26 93 -28 53 -27 137 -61 186 -75 108 -32 279 -52 315 -38 33 13 21 17 -115 35 -176 24 -372 95 -442 159 l-22 20 197 197 c182 183 272 282 272 303 0 12 -24 10 -77 -8 -26 -10 -67 -23 -91 -30 l-43 -13 20 28 c12 16 107 113 213 216 106 104 174 174 152 157 -23 -18 -45 -32 -48 -32 -9 0 -30 -19 -127 -109 -88 -83 -133 -112 -64 -41 21 22 37 40 34 40 -3 0 -25 -21 -49 -46 -25 -26 -38 -43 -30 -39 8 4 -25 -33 -74 -83 -50 -50 -92 -89 -94 -87 -3 2 30 38 72 80 42 41 76 78 76 81 0 2 -54 -44 -121 -103 -66 -59 -130 -113 -142 -120 -12 -7 -22 -16 -22 -21 0 -5 -22 -27 -50 -49 -27 -22 -76 -68 -108 -102 -31 -34 -57 -60 -57 -58 0 2 -40 -36 -88 -84 -108 -106 -192 -155 -192 -111 0 14 -2 15 -10 2 -6 -9 -13 -11 -18 -5 -13 18 -32 15 -32 -5 0 -11 7 -20 15 -20 14 0 19 -11 16 -36 -1 -7 5 -14 14 -18 8 -3 15 -13 15 -22 0 -10 3 -14 6 -11 4 3 15 -5 26 -18 11 -14 26 -25 35 -25 8 0 41 -24 73 -52 31 -29 72 -62 91 -72 l34 -19 -28 30 c-23 25 -26 31 -13 36 20 8 53 -4 108 -40 86 -55 225 -122 306 -147 171 -53 373 -71 487 -41 48 12 44 13 -93 14 -201 1 -373 39 -544 118 -87 40 -64 38 32 -3 163 -68 254 -86 450 -89 l175 -3 -140 8 c-254 14 -468 78 -648 193 -32 21 -62 37 -67 37 -18 0 -11 18 9 25 13 4 61 -15 138 -53 229 -115 403 -158 603 -149 327 14 618 142 875 386 156 147 264 324 314 514 72 274 58 550 -41 779 -30 71 -32 53 -2 -23 106 -269 94 -615 -31 -885 -106 -230 -336 -468 -575 -597 -269 -145 -630 -177 -915 -81 -161 54 -315 139 -315 175 0 24 37 18 117 -21 49 -23 122 -56 163 -72 339 -137 764 -62 1094 191 115 88 245 218 280 280 5 9 12 18 15 21 4 3 18 23 32 45 134 208 173 555 93 831 -21 73 -87 224 -98 224 -2 0 14 -41 36 -91z"/>
<path d="M646 4794 c-22 -22 -20 -33 9 -46 14 -6 25 -15 25 -20 0 -5 6 -6 13 -2 6 4 4 -2 -6 -12 -14 -16 -21 -17 -37 -6 -17 10 -20 10 -20 -2 0 -17 31 -29 53 -20 35 13 28 74 -9 74 -8 0 -14 7 -14 15 0 9 9 15 23 15 18 0 19 2 7 10 -20 13 -26 12 -44 -6z"/>
<path d="M1200 4801 c-21 -6 -24 -12 -26 -58 -1 -55 10 -69 47 -58 27 9 23 25 -6 25 -16 0 -25 6 -25 15 0 8 9 15 20 15 11 0 20 5 20 10 0 6 -9 10 -20 10 -31 0 -24 28 8 32 15 2 23 6 17 9 -5 3 -21 3 -35 0z"/>
<path d="M789 4750 c-5 -55 -4 -68 7 -58 3 3 4 30 2 59 l-3 54 -6 -55z"/>
<path d="M872 4743 c3 -56 4 -58 31 -58 33 0 41 19 10 23 -19 3 -23 10 -23 42 0 21 -5 42 -11 45 -7 5 -9 -12 -7 -52z"/>
<path d="M980 4790 c0 -22 32 -100 41 -100 5 0 9 1 9 3 0 1 9 26 20 55 23 61 17 70 -9 11 l-18 -40 -21 43 c-12 24 -21 36 -22 28z"/>
<path d="M1330 4761 c0 -21 -3 -46 -6 -55 -3 -9 -1 -16 5 -16 6 0 11 9 11 20 0 26 8 25 29 -2 18 -21 18 -21 17 33 -1 51 -2 54 -28 57 -26 3 -28 1 -28 -37z m45 9 c0 -8 -8 -16 -17 -18 -13 -2 -18 3 -18 18 0 15 5 20 18 18 9 -2 17 -10 17 -18z"/>
<path d="M2853 4595 c0 -27 2 -38 4 -22 2 15 2 37 0 50 -2 12 -4 0 -4 -28z"/>
<path d="M436 4485 c5 -184 80 -410 166 -507 l30 -33 -22 37 c-12 21 -18 43 -14 49 4 8 3 9 -4 5 -15 -9 -64 89 -102 202 -26 80 -44 181 -54 307 -2 28 -2 1 0 -60z"/>
<path d="M395 4470 c3 -96 9 -144 28 -208 14 -46 28 -86 33 -90 4 -4 4 2 0 12 -25 70 -48 192 -56 293 l-9 118 4 -125z"/>
<path d="M335 4390 c2 -103 8 -139 29 -204 26 -76 45 -120 46 -103 0 4 -7 24 -15 44 -29 69 -47 159 -55 273 l-8 115 3 -125z"/>
<path d="M173 4440 c0 -30 2 -43 4 -27 2 15 2 39 0 55 -2 15 -4 2 -4 -28z"/>
<path d="M271 4365 c-1 -91 8 -167 29 -245 6 -23 14 -40 16 -37 3 3 0 25 -6 48 -7 24 -18 107 -25 184 l-13 140 -1 -90z"/>
<path d="M181 4359 c-1 -37 26 -183 46 -244 18 -57 99 -235 107 -235 2 0 -13 39 -35 86 -45 96 -82 219 -103 339 -8 44 -15 68 -15 54z"/>
<path d="M1607 4303 c-11 -10 -8 -123 3 -123 6 0 10 6 10 13 0 6 14 20 30 29 32 18 37 37 20 69 -10 18 -50 26 -63 12z m43 -49 c0 -16 -16 -19 -25 -4 -8 13 4 32 16 25 5 -4 9 -13 9 -21z"/>
<path d="M1780 4293 c-14 -9 -28 -22 -32 -27 -14 -20 -8 -63 10 -79 43 -39 112 -5 112 53 0 31 -30 70 -53 70 -7 0 -24 -8 -37 -17z m60 -45 c13 -25 13 -29 -1 -44 -34 -33 -91 14 -69 57 15 28 50 21 70 -13z"/>
<path d="M1958 4287 c-39 -33 -45 -64 -17 -93 29 -31 69 -31 97 -1 28 29 28 57 1 91 -25 32 -46 33 -81 3z m63 -28 c39 -39 2 -86 -45 -56 -28 19 -34 45 -14 65 17 17 35 15 59 -9z"/>
<path d="M2120 4240 c0 -33 4 -60 10 -60 6 0 10 14 10 30 0 17 4 30 9 30 5 0 21 -13 34 -30 38 -44 47 -38 47 30 0 33 -4 60 -10 60 -5 0 -10 -17 -10 -37 l-1 -38 -34 38 c-20 20 -40 37 -45 37 -6 0 -10 -27 -10 -60z"/>
<path d="M180 4194 c-2 -48 111 -314 170 -399 33 -47 55 -58 25 -11 -9 14 -14 30 -10 36 4 6 1 9 -5 8 -15 -4 -103 167 -145 283 -19 52 -34 89 -35 83z"/>
<path d="M2716 4134 c-36 -125 -114 -264 -242 -428 -30 -37 -54 -72 -54 -78 0 -5 -4 -6 -10 -3 -5 3 -10 0 -10 -7 0 -15 -109 -123 -183 -183 -56 -44 -56 -55 -1 -23 144 84 392 369 465 533 24 54 69 209 69 237 0 38 -16 15 -34 -48z"/>
<path d="M460 4155 c0 -5 5 -17 10 -25 5 -8 10 -10 10 -5 0 6 -5 17 -10 25 -5 8 -10 11 -10 5z"/>
<path d="M261 4147 c-3 -38 139 -313 171 -333 7 -4 -3 17 -21 47 -18 30 -59 108 -91 174 -33 66 -59 117 -59 112z"/>
<path d="M480 4105 c0 -5 5 -17 10 -25 5 -8 10 -10 10 -5 0 6 -5 17 -10 25 -5 8 -10 11 -10 5z"/>
<path d="M321 4065 c0 -5 6 -21 14 -35 8 -14 14 -20 14 -15 0 6 -6 21 -14 35 -8 14 -14 21 -14 15z"/>
<path d="M410 4064 c0 -6 7 -19 16 -30 14 -18 14 -18 3 6 -14 31 -19 36 -19 24z"/>
<path d="M1748 3203 c7 -3 16 -2 19 1 4 3 -2 6 -13 5 -11 0 -14 -3 -6 -6z"/>
<path d="M1310 3080 c0 -6 17 -10 37 -10 43 0 41 5 -4 13 -19 4 -33 2 -33 -3z"/>
<path d="M1558 3073 c6 -2 18 -2 25 0 6 3 1 5 -13 5 -14 0 -19 -2 -12 -5z"/>
</g>
</svg>